<svg width="1608" height="258" viewBox="0 0 1608 258" fill="none" xmlns="http://www.w3.org/2000/svg">
<g clip-path="url(#clip0_919_2)">
<path d="M561.7 27.24H521.17V81.81H502.34V119.95H521.17V170.28C521.17 200.21 545.23 224.32 574.51 224.32H592.55V183.79H574.51C567.45 183.79 561.7 177.96 561.7 170.55V120.22H592.82V82.08H561.7V27.24Z" fill="black"/>
<path d="M691.91 78.89C673.08 78.89 658.18 86.84 652.43 99.29V27.24H610.86V224.58H652.43V144.59C652.43 127.9 663.15 116.25 678.32 116.25C693.49 116.25 702.38 126.32 702.38 143.27V224.85H743.95V137.97C743.95 100.89 725.12 78.9 691.92 78.9L691.91 78.89Z" fill="black"/>
<path d="M784.48 21.9399C771.41 21.9399 760.69 32.5399 760.69 46.0399C760.69 59.5399 771.41 69.8799 784.48 69.8799C797.55 69.8799 808.27 59.2799 808.27 46.0399C808.27 32.7999 797.55 21.9399 784.48 21.9399Z" fill="black"/>
<path d="M805.4 82.0698H763.82V224.84H805.4V82.0698Z" fill="black"/>
<path d="M864.75 101.4V81.7999H823.17V224.57H864.75V154.91C864.75 131.34 878.61 117.83 902.4 117.83C907.38 117.83 912.08 118.36 916.26 119.15V79.4199C911.81 78.8899 908.16 78.6299 905.28 78.6299C886.19 78.8899 871.02 87.1099 864.75 101.41V101.4Z" fill="black"/>
<path d="M1033.14 100.61C1028.95 88.16 1012.48 79.42 991.3 79.42C971.43 79.42 954.69 86.57 941.36 100.88C928.28 114.92 921.48 132.67 921.48 153.33C921.48 173.99 928.28 191.47 941.36 206.04C954.69 220.08 971.43 227.23 991.3 227.23C1012.48 227.23 1028.95 218.49 1033.14 206.04V224.85H1074.71V27.24H1033.14V100.61ZM1024.77 178.75C1017.71 185.64 1009.08 188.82 998.88 188.82C988.68 188.82 980.32 185.38 973.51 178.75C966.46 171.6 963.05 163.12 963.05 153.32C963.05 143.52 966.45 135.04 973.51 128.16C980.57 121.01 988.94 117.57 998.88 117.57C1009.34 117.57 1017.97 121.01 1024.77 128.16C1032.09 135.05 1035.75 143.52 1035.75 153.32C1035.75 163.12 1032.09 171.6 1024.77 178.75Z" fill="black"/>
<path d="M1232.39 150.41L1194.73 82.5998L1157.08 150.41L1131.98 82.0698H1091.19L1148.98 233.05L1194.74 150.94L1240.5 233.05L1298.54 82.0698H1257.75L1232.39 150.41Z" fill="black"/>
<path d="M1367.04 78.6199C1345.6 78.6199 1327.56 85.5099 1313.44 99.2799C1299.58 112.79 1292.52 130.8 1292.52 153.05V154.37C1292.52 176.62 1299.58 194.63 1313.44 208.14C1327.82 221.38 1346.12 228.27 1369.13 228.27C1390.57 228.27 1408.09 224.03 1421.43 215.29V178.47C1408.36 187.74 1391.62 192.24 1371.48 192.24C1349.52 192.24 1335.14 181.38 1334.35 164.43H1437.64C1438.16 160.19 1438.43 155.42 1438.43 150.66C1438.43 130.26 1431.63 113.31 1418.55 99.5399C1405.48 85.4999 1387.96 78.6099 1367.04 78.6099V78.6199ZM1334.36 137.16C1334.62 130.54 1338.02 124.98 1344.29 120.47C1350.83 115.97 1358.15 113.58 1367.04 113.58C1383.51 113.58 1396.33 124.44 1396.33 137.15H1334.36V137.16Z" fill="black"/>
<path d="M1587.21 100.87C1574.14 86.57 1557.4 79.41 1537.53 79.41C1516.35 79.41 1499.88 88.15 1495.7 100.6V27.24H1454.12V224.58H1495.7V205.77C1499.88 218.22 1516.36 226.96 1537.53 226.96C1557.4 226.96 1574.14 219.81 1587.21 205.77C1600.55 191.2 1607.34 173.72 1607.34 153.06C1607.34 132.4 1600.54 115.18 1587.21 100.88V100.87ZM1555.31 178.75C1548.25 185.64 1539.88 188.82 1529.94 188.82C1519.48 188.82 1510.85 185.38 1503.8 178.75C1496.74 171.6 1493.08 163.12 1493.08 153.32C1493.08 143.52 1496.74 135.04 1503.8 128.16C1511.12 121.01 1519.74 117.57 1529.94 117.57C1540.14 117.57 1548.51 121.01 1555.31 128.16C1562.36 135.05 1565.77 143.52 1565.77 153.32C1565.77 163.12 1562.37 171.6 1555.31 178.75Z" fill="black"/>
<path d="M1.12997 21.67C-3.00003 11.25 4.68997 0 15.94 0H85.8C92.36 0 98.18 3.91 100.62 9.95L156.22 148.7C157.72 152.42 157.72 156.6 156.22 160.42L121.25 247.55C115.91 260.85 96.96 260.85 91.62 247.55L1.12997 21.67Z" fill="url(#paint0_linear_919_2)"/>
<path d="M136.22 21.67C132.09 11.25 139.78 0 151.04 0H220.9C227.46 0 233.28 3.91 235.72 9.95L291.32 148.7C292.82 152.42 292.82 156.6 291.32 160.42L256.35 247.55C251.01 260.85 232.06 260.85 226.72 247.55L136.22 21.67Z" fill="url(#paint1_linear_919_2)"/>
<path d="M268.74 21.67C264.61 11.25 272.3 0 283.56 0H353.42C359.98 0 365.8 3.91 368.24 9.95L423.84 148.7C425.34 152.42 425.34 156.6 423.84 160.42L388.87 247.55C383.53 260.85 364.58 260.85 359.24 247.55L268.74 21.67Z" fill="url(#paint2_linear_919_2)"/>
</g>
<defs>
<linearGradient id="paint0_linear_919_2" x1="-10.62" y1="82.72" x2="192.47" y2="170.34" gradientUnits="userSpaceOnUse">
<stop stop-color="#F213A4"/>
<stop offset="0.15" stop-color="#E011A7"/>
<stop offset="0.46" stop-color="#B20DAF"/>
<stop offset="0.88" stop-color="#6806BB"/>
<stop offset="1" stop-color="#5204BF"/>
</linearGradient>
<linearGradient id="paint1_linear_919_2" x1="124.48" y1="259.52" x2="327.56" y2="259.52" gradientUnits="userSpaceOnUse">
<stop stop-color="#F213A4"/>
<stop offset="0.15" stop-color="#E011A7"/>
<stop offset="0.46" stop-color="#B20DAF"/>
<stop offset="0.88" stop-color="#6806BB"/>
<stop offset="1" stop-color="#5204BF"/>
</linearGradient>
<linearGradient id="paint2_linear_919_2" x1="256.99" y1="82.72" x2="460.08" y2="170.34" gradientUnits="userSpaceOnUse">
<stop stop-color="#F213A4"/>
<stop offset="0.15" stop-color="#E011A7"/>
<stop offset="0.46" stop-color="#B20DAF"/>
<stop offset="0.88" stop-color="#6806BB"/>
<stop offset="1" stop-color="#5204BF"/>
</linearGradient>
<clipPath id="clip0_919_2">
<rect width="1607.34" height="257.52" fill="white"/>
</clipPath>
</defs>
</svg>
